<svg width="560" height="292" viewBox="0 0 560 292" fill="none" xmlns="http://www.w3.org/2000/svg" role="img" aria-labelledby="title desc">
  <title id="title">Primary Languages</title>
  <desc id="desc">Original public repositories by main language</desc>
  <defs>
    <linearGradient id="bg" x1="0" y1="0" x2="560" y2="292" gradientUnits="userSpaceOnUse">
      <stop stop-color="#111827"/>
      <stop offset="1" stop-color="#0F172A"/>
    </linearGradient>
  </defs>
  <rect width="560" height="292" rx="14" fill="url(#bg)"/>
  <rect x="0.5" y="0.5" width="559" height="291" rx="13.5" stroke="#334155"/>
  <text x="24" y="34" fill="#E5E7EB" font-family="Inter, Segoe UI, Arial, sans-serif" font-size="18" font-weight="700">Primary Languages</text>
  <text x="24" y="58" fill="#94A3B8" font-family="Inter, Segoe UI, Arial, sans-serif" font-size="12">Original public repositories by main language</text>
  <text x="24" y="96" fill="#CBD5E1" font-family="Inter, Segoe UI, Arial, sans-serif" font-size="13">Swift</text>
  <text x="500" y="96" fill="#CBD5E1" font-family="Inter, Segoe UI, Arial, sans-serif" font-size="13" text-anchor="end">6</text>
  <rect x="24" y="106" width="360" height="8" rx="4" fill="#1E293B"/>
  <rect x="24" y="106" width="360" height="8" rx="4" fill="#F97316"/>
  <text x="24" y="130" fill="#CBD5E1" font-family="Inter, Segoe UI, Arial, sans-serif" font-size="13">Objective-C</text>
  <text x="500" y="130" fill="#CBD5E1" font-family="Inter, Segoe UI, Arial, sans-serif" font-size="13" text-anchor="end">5</text>
  <rect x="24" y="140" width="360" height="8" rx="4" fill="#1E293B"/>
  <rect x="24" y="140" width="300" height="8" rx="4" fill="#3B82F6"/>
  <text x="24" y="164" fill="#CBD5E1" font-family="Inter, Segoe UI, Arial, sans-serif" font-size="13">JavaScript</text>
  <text x="500" y="164" fill="#CBD5E1" font-family="Inter, Segoe UI, Arial, sans-serif" font-size="13" text-anchor="end">3</text>
  <rect x="24" y="174" width="360" height="8" rx="4" fill="#1E293B"/>
  <rect x="24" y="174" width="180" height="8" rx="4" fill="#FACC15"/>
  <text x="24" y="198" fill="#CBD5E1" font-family="Inter, Segoe UI, Arial, sans-serif" font-size="13">Python</text>
  <text x="500" y="198" fill="#CBD5E1" font-family="Inter, Segoe UI, Arial, sans-serif" font-size="13" text-anchor="end">2</text>
  <rect x="24" y="208" width="360" height="8" rx="4" fill="#1E293B"/>
  <rect x="24" y="208" width="120" height="8" rx="4" fill="#CC342D"/>
  <text x="24" y="232" fill="#CBD5E1" font-family="Inter, Segoe UI, Arial, sans-serif" font-size="13">Ruby</text>
  <text x="500" y="232" fill="#CBD5E1" font-family="Inter, Segoe UI, Arial, sans-serif" font-size="13" text-anchor="end">2</text>
  <rect x="24" y="242" width="360" height="8" rx="4" fill="#1E293B"/>
  <rect x="24" y="242" width="120" height="8" rx="4" fill="#22C55E"/>
</svg>
